<svg id="Capa_1" data-name="Capa 1" xmlns="http://www.w3.org/2000/svg" viewBox="0 0 18.88 35.33"><defs><style>.cls-1{fill:#49befa;}</style></defs><path class="cls-1" d="M18.88,20.55V35.33c-2.88-1.11-5.52-2-7.7-4a20,20,0,0,1-6.3-13.88c0-.33,0-1,0-1.82,0-.39.08-.78.14-1.17.16-1.06.77-2.39.51-3.45C5.2,9.44,3.73,8.72,2.64,7.8A7,7,0,0,1,.87,5.71a7.89,7.89,0,0,1-.44-1A6.41,6.41,0,0,1,0,1.82,5.78,5.78,0,0,1,.32.51,2.66,2.66,0,0,0,.56,0,3.46,3.46,0,0,0,3.18,2C7,2.89,8,4.79,8.22,5.17a.28.28,0,0,0,.49.07,7.42,7.42,0,0,1,5.8-1.33,9.53,9.53,0,0,0,2.59.41c.51-.05,1.17-.15,1.3-.79a10.37,10.37,0,0,1-1.61,3.92c-.08.12-.17.24-.26.35s-.18.24-.28.35A6.12,6.12,0,0,1,13.3,9.81a6.93,6.93,0,0,0-3,1.28,3.26,3.26,0,0,0-.88,2.05,5.47,5.47,0,0,0,.23,2.28,7.2,7.2,0,0,0,1.76,2.78A8.36,8.36,0,0,0,14.44,20a9.5,9.5,0,0,0,2.36.47C17.5,20.55,18.19,20.51,18.88,20.55Z" transform="translate(0 0)"/></svg>