<svg id="Capa_1" data-name="Capa 1" xmlns="http://www.w3.org/2000/svg" viewBox="0 0 33.26 32"><defs><style>.cls-1{fill:#00b5eb;}.cls-2{fill:#49befa;}.cls-3{fill:#e3f6ff;}.cls-4{fill:#00afe3;}.cls-5{fill:none;stroke:#f39200;stroke-miterlimit:10;stroke-width:0.05px;}.cls-6{fill:#ff066c;}.cls-7{fill:#22224e;}.cls-8{fill:#29235c;}</style></defs><path class="cls-1" d="M24.54,26.88c.08.22.16.44.25.66a.86.86,0,0,0,.1.16,1.16,1.16,0,0,1,0-.18c0-.14,0,.11-.06,0-.1-.38-.09-.51.27-1.3a5.44,5.44,0,0,1,.48-.7,4.15,4.15,0,0,1,1.84-1,1.81,1.81,0,0,1,.28-.34,1.89,1.89,0,0,0-.22,1.24,2.13,2.13,0,0,0,.31.85,3.13,3.13,0,0,0,1.57,1.26c.08,0,.15.05.25.09l.3.1.56.23.55.26.28.16.15.09.09.07.06.06.05,0a.7.7,0,0,1,.06.09l0,0a.2.2,0,0,1,0,.08.52.52,0,0,1,0,.18.61.61,0,0,1-.12.34l0,0,0,0-.06.06-.14.13h0a1.35,1.35,0,0,1-.15.13,2.93,2.93,0,0,1-.62.26,3.81,3.81,0,0,1-1.06.31,4.5,4.5,0,0,1-1.16,0h0a4.25,4.25,0,0,1-2.07-.7A4.08,4.08,0,0,1,24.86,28a4.3,4.3,0,0,1-.16-.41,3.92,3.92,0,0,1-.16-.73v0Z" transform="translate(0)"/><path class="cls-2" d="M0,13.09v14.8c.65.29,1.31.56,2,.8l.7.24.82.25c.41.12.82.24,1.23.34A27.26,27.26,0,0,0,8,30.13q.72.09,1.44.15h.23l.2,0c1.15.08,2.26.13,3.24.23a21.58,21.58,0,0,0,8.62-.7l-1.4-1.62L18.7,26.39,3,8.19,2,10.36l-.41.85A5,5,0,0,1,0,13.09Z" transform="translate(0)"/><path class="cls-2" d="M1,15.44a11,11,0,0,0,0,2.72c.06.39,9,8.12,14.18,9.92,1,.34,4.27.09,4.66.12,2.16.19,7.4-.61,8-1A13.51,13.51,0,0,0,32,21.45l.15-.35c.07-.18.15-.37.22-.56l.28-.77.07-.22c0-.13.07-.26.1-.39l.3-1.5a4.43,4.43,0,0,0,.06-.51l.09-1.51a1.34,1.34,0,0,0,0-.2C33.25,6.91,26,0,17.13,0S1,7.39,1,15.44Z" transform="translate(0)"/><path class="cls-3" d="M28.4,26.58s-1.67-.21-1.77-.22a32.08,32.08,0,0,0-11.91.82l-.05,0a11.8,11.8,0,0,0-3.24,1.39,4.18,4.18,0,0,0-1.32,1.11c0,.07-.4.6-.27.63a23.75,23.75,0,0,0,6.07.4,35,35,0,0,0,5.95-.65h.06a15.37,15.37,0,0,0,5-2.28,1.88,1.88,0,0,0,.23-.16,5.53,5.53,0,0,0,1.17-.92A.38.38,0,0,0,28.4,26.58Z" transform="translate(0)"/><path class="cls-2" d="M28.39,26.58h0v0l-.51-.05-.94-.14-.3,0c-.51-.05-1-.1-1.53-.13a34.16,34.16,0,0,0-6.44.17,27.75,27.75,0,0,0-4,.79h0l-1,.3a11.25,11.25,0,0,0-2.28,1.1h0a4.35,4.35,0,0,0-1.33,1.12.83.83,0,0,0-.08.12h0c-.25.4-.23.49-.21.52h0a.09.09,0,0,0,.06.06,22.5,22.5,0,0,0,4.57.44c.49,0,1,0,1.52,0h.26a32.64,32.64,0,0,0,5.72-.64l.05,0a14.85,14.85,0,0,0,3.4-1.33,16.93,16.93,0,0,0,1.6-1l.24-.16.19-.13a5.46,5.46,0,0,0,.85-.65l.14-.15s0,0,0,0a1,1,0,0,0,.08-.11h0Zm-.86.72h0l-.2.13-.2.13-.23.16c-.54.36-1.07.68-1.61,1A15.44,15.44,0,0,1,21.91,30h-.06a21.35,21.35,0,0,1-3.19.48c-.83.07-1.67.12-2.49.16h-.26l-.38,0h-.07a23.24,23.24,0,0,1-5.2-.34l-.4-.07a2.19,2.19,0,0,1,.29-.55,4.48,4.48,0,0,1,1.29-1.08h0a10.43,10.43,0,0,1,2.37-1.12h0c.27-.1.54-.18.84-.27h.06a27.1,27.1,0,0,1,4-.79A33.39,33.39,0,0,1,25,26.29c.53,0,1.06.07,1.59.13l.3,0,1,.15.32,0,0,0-.12.13a4.25,4.25,0,0,1-.6.49Z" transform="translate(0)"/><path class="cls-2" d="M1.69,29.64l.14.25.18.27.12.15a2.35,2.35,0,0,0,.3.33,4.35,4.35,0,0,0,1,.74,5.32,5.32,0,0,0,1.25.45h0a5.11,5.11,0,0,0,2.87-.17,4.6,4.6,0,0,0,1.54-1h.06c0-.08.09-.15.14-.23l0,0c.05-.08.07-.18.14-.22s.06-.07.16-.15c.55-.47.29-.52.2-1.51,0,0,0-.25-.27-.94A5,5,0,0,0,8,25.88s-.07,0-.07.06a2,2,0,0,1-.31,1A5.25,5.25,0,0,1,4.8,29.16c-1.49.3-2.88-.56-3.18-.1A.63.63,0,0,0,1.69,29.64Z" transform="translate(0)"/><path class="cls-4" d="M7.94,25.89h0a1.83,1.83,0,0,0-.18-.46,2.11,2.11,0,0,1-.22,1.41,2.48,2.48,0,0,1-.65.81,3.63,3.63,0,0,1-2.19.79H4.4a2.16,2.16,0,0,0-.36,0c-.24,0-.47,0-.7,0s-.46,0-.69.08l-.36.06-.2,0-.11,0H2l-.09,0-.06,0-.11.07,0,0-.06.08a.35.35,0,0,0-.1.18.61.61,0,0,0,0,.42l0,.05,0,0,0,.09a1.74,1.74,0,0,0,.1.19s0,0,0,0a.78.78,0,0,0,.12.19,3,3,0,0,0,.57.51l0,0,.07.05.12.09.11.07.28.2a.77.77,0,0,0,.34.16.75.75,0,0,0,.31-.05l0,0H3.63a.48.48,0,0,1-.24-.06.67.67,0,0,1-.2-.21l-.06-.09L3,30.61a1,1,0,0,1-.16-.28A2.49,2.49,0,0,1,2.76,30h0c0-.07,0-.13,0-.19H2.8v0a.8.8,0,0,1,0,.15l0-.06,0-.12h0l.63-.09.63-.08.31,0,.31,0h.06a4.42,4.42,0,0,0,1.31-.39,4,4,0,0,0,1.28-1l.18-.24A2.59,2.59,0,0,0,7.94,25.89Z" transform="translate(0)"/><path class="cls-4" d="M4.69,31.82h0a4.91,4.91,0,0,0,2.5,0,4.6,4.6,0,0,0,2.16-1.26,4,4,0,0,0,.34-.39,4.14,4.14,0,0,0,.44-.73v0h0l-.51.63-.17.14-.1.09a8.25,8.25,0,0,1-1.68.93,7.87,7.87,0,0,1-2.25.55Z" transform="translate(0)"/><path class="cls-5" d="M19.57,13.09" transform="translate(0)"/><path class="cls-6" d="M20.91,17.05s.77,3.08-1.51,3.66-2.5-3.51-2.5-3.51S20.26,17.63,20.91,17.05Z" transform="translate(0)"/><path class="cls-7" d="M18.45,18a3.88,3.88,0,0,1-2.88-1,2.18,2.18,0,0,1-.68-1.65.35.35,0,1,1,.7.05,1.46,1.46,0,0,0,.48,1.1,3.5,3.5,0,0,0,2.88.75c2.58-.18,2.59-1.8,2.59-1.87a.36.36,0,0,1,.34-.36.35.35,0,0,1,.36.34s0,2.36-3.24,2.6Z" transform="translate(0)"/><path class="cls-8" d="M9.09,12.05c.08.1.2.39.4.46a.84.84,0,0,0,.7-.14c1.73-1.4,1.72-1.4,3.68,0a.8.8,0,0,0,.7.09.8.8,0,0,0,.32-.63c0-1.1-1.69-2.2-3.13-2.13A2.75,2.75,0,0,0,9.09,12.05Z" transform="translate(0)"/><path class="cls-8" d="M24.43,9.72a2.7,2.7,0,0,0-2.72,1.93,1.15,1.15,0,0,0,.32.86c.09.09.59-.07.77-.24,1.65-1.67,1.63-1.67,3.5,0,.18.16.68.29.77.2a1.18,1.18,0,0,0,.29-.88A3,3,0,0,0,24.43,9.72Z" transform="translate(0)"/></svg>